<svg fill="none" height="24" viewBox="0 0 24 24" width="24" xmlns="http://www.w3.org/2000/svg"><path d="m13.5 8h3l-3 3h3" stroke="#1c274c" stroke-linecap="round" stroke-linejoin="round" stroke-width="1.5"/><path d="m18 2h4l-4 4h4" stroke="#1c274c" stroke-linecap="round" stroke-linejoin="round" stroke-width="1.5"/><path d="m21.0672 11.8568-.6419-.3878zm-8.924-8.92404-.3879-.64191zm-4.76766 17.08024c-.35854-.2074-.81734-.0849-1.02474.2736-.20741.3586-.08489.8174.27366 1.0248zm-4.68692-2.6375c.2074.3586.6662.4811 1.02475.2737.35854-.2074.48106-.6662.27366-1.0247zm18.56138-5.3755c0 5.1086-4.1414 9.25-9.25 9.25v1.5c5.9371 0 10.75-4.8129 10.75-10.75zm-18.5 0c0-5.10863 4.14137-9.25 9.25-9.25v-1.5c-5.93706 0-10.75 4.81294-10.75 10.75zm12.75 2.25c-3.1756 0-5.75-2.5744-5.75-5.75h-1.5c0 4.0041 3.2459 7.25 7.25 7.25zm4.9253-2.781c-1.0081 1.6683-2.8371 2.781-4.9253 2.781v1.5c2.6349 0 4.9407-1.4061 6.2092-3.5053zm-10.6753-2.969c0-2.08818 1.1127-3.9172 2.781-4.92533l-.7757-1.28382c-2.09921 1.26845-3.5053 3.57424-3.5053 6.20915zm2.25-5.75c-.0885 0-.1923-.03992-.2676-.11832-.0638-.06641-.0786-.12924-.0821-.15465-.0042-.03116-.0021-.12146.105-.18618l.7757 1.28382c.5032-.30402.665-.86069.6058-1.2984-.0614-.45501-.4202-1.02627-1.1368-1.02627zm9.7092 9.4947c-.0648.1071-.1551.1092-.1862.105-.0254-.0035-.0883-.0183-.1547-.0821-.0784-.0753-.1183-.1791-.1183-.2676h1.5c0-.7166-.5713-1.0754-1.0263-1.1368-.4377-.0592-.9944.1026-1.2984.6058zm-9.7092 9.0053c-1.6861 0-3.26467-.4504-4.62446-1.237l-.75108 1.2984c1.58194.9151 3.41874 1.4386 5.37554 1.4386zm-8.01297-4.6255c-.7866-1.3598-1.23703-2.9384-1.23703-4.6245h-1.5c0 1.9568.52351 3.7936 1.43862 5.3755z" fill="#1c274c"/></svg>