<svg fill="none" height="24" viewBox="0 0 24 24" width="24" xmlns="http://www.w3.org/2000/svg"><g stroke="#1c274c" stroke-width="1.5"><path d="m12 19.5c0 1.3807-1.1193 2.5-2.5 2.5-1.38071 0-2.5-1.1193-2.5-2.5s1.11929-2.5 2.5-2.5c1.3807 0 2.5 1.1193 2.5 2.5z"/><path d="m22 17.5c0 1.3807-1.1193 2.5-2.5 2.5s-2.5-1.1193-2.5-2.5 1.1193-2.5 2.5-2.5 2.5 1.1193 2.5 2.5z"/><path d="m22 8-10 4" stroke-linecap="round"/></g><path d="m14.4556 5.15803.2896.69184zm2-.83709-.2895-.69185zm4.6525-.98035-.4156.62437zm-8.3581 15.65981v-10.15253h-1.5v10.15253zm10-1.8462v-9.14342h-1.5v9.14342zm-8.0048-11.30433 2-.83709-.5791-1.38369-2 .83709zm8.0048 2.16091c0-1.33412.002-2.41987-.1196-3.24141-.1237-.83609-.3996-1.58248-1.1068-2.05315l-.8311 1.24874c.1847.12291.3548.35275.4541 1.02393.1014.68573.1034 1.63828.1034 3.02189zm-6.0048-2.998c1.2763-.5342 2.1558-.90015 2.8275-1.07133.6575-.16754.9352-.09941 1.1198.02351l.8311-1.24874c-.7072-.47068-1.5023-.43702-2.3213-.22831-.8048.20507-1.8056.62609-3.0362 1.14118zm-3.9952 3.83509c0-.66153.001-1.09796.0375-1.43371.0345-.31754.0948-.4741.1719-.58986l-1.2488-.83105c-.2579.38764-.3651.80539-.4143 1.25893-.0473.43534-.0463.96675-.0463 1.59569zm1.4161-4.38169c-.5802.24283-1.0708.44706-1.4541.65876-.3994.22055-.7434.48068-1.0014.86831l1.2488.83105c.077-.11575.1981-.23188.4777-.3863.2957-.16327.6979-.33272 1.3081-.58813z" fill="#1c274c"/><path d="m7 11v-4.5-4.5" stroke="#1c274c" stroke-linecap="round" stroke-width="1.5"/><circle cx="4.5" cy="10.5" r="2.5" stroke="#1c274c" stroke-width="1.5"/><path d="m10 5c-1.24264 0-3-.92893-3-3" stroke="#1c274c" stroke-linecap="round" stroke-width="1.5"/></svg>