<svg height="24" viewBox="0 0 24 24" width="24" xmlns="http://www.w3.org/2000/svg"><path d="m12 4c1.11 0 2 .89 2 2s-.89 2-2 2-2-.89-2-2 .9-2 2-2m9 12v-2c-2.24 0-4.16-.96-5.6-2.68l-1.34-1.6c-.38-.46-.94-.72-1.53-.72h-1.03c-.61 0-1.17.26-1.55.72l-1.34 1.6c-1.45 1.72-3.37 2.68-5.61 2.68v2c2.77 0 5.19-1.17 7-3.25v2.25l-3.88 1.55c-.67.27-1.12.95-1.12 1.66 0 .99.8 1.79 1.79 1.79h2.21v-.5c0-1.38 1.12-2.5 2.5-2.5h3c.28 0 .5.22.5.5s-.22.5-.5.5h-3c-.83 0-1.5.67-1.5 1.5v.5h7.21c.99 0 1.79-.8 1.79-1.79 0-.71-.45-1.39-1.12-1.66l-3.88-1.55v-2.25c1.81 2.08 4.23 3.25 7 3.25z"/></svg>